Coordinates
version=1
nRows=8
nColumns=33
inDegrees=yes

Units are S.I. units (second, meters, Newtons, ...)
Angles are in degrees.

endheader
time	ground_thorax_rot_x	ground_thorax_rot_y	ground_thorax_rot_z	ground_thorax_tx	ground_thorax_ty	ground_thorax_tz	clav_prot_r	clav_elev_r	scapula_abduction_r	scapula_elevation_r	scapula_upward_rot_r	scapula_winging_r	shoulder_elv_r	plane_of_elev_r	axial_rot_r	elbow_flexion_r	pro_sup_r	wrist_flex_r	wrist_dev_r	clav_prot_l	clav_elev_l	scapula_abduction_l	scapula_elevation_l	scapula_upward_rot_l	scapula_winging_l	shoulder_elv_l	plane_of_elev_l	axial_rot_l	elbow_flexion_l	pro_sup_l	wrist_flex_l	wrist_dev_l
      6.64000000	     35.05913856	     18.46172367	     27.11014598	   -143.31324784	    814.24281342	      6.35933924	     15.97781320	     38.15750450	     40.39140296	     45.00000000	    -45.00000000	  -3686.55582475	  -2447.30067830	     34.03440917	     28.44258556	   1813.82144062	     38.70090411	     19.65333500	      6.28174734	     10.47170701	    -45.00000000	    -39.98649701	     45.00000000	    -38.57388992	   2257.64323126	  -2974.10404884	    137.29768154	    177.60817746	  -1071.96254490	     25.84210789	      9.21552373	    -22.18666505
      6.65000000	     35.21369437	     18.28232664	     26.61454894	   -148.33671909	    816.23837115	      6.33122572	     15.85919551	     38.10445113	     40.13775244	     45.00000000	    -45.00000000	  -3686.64656607	  -2446.86453375	     33.91818006	     27.58507081	   1813.96937381	     39.49911102	     19.85233915	      6.36527159	     10.53611839	    -45.00000000	    -39.85170100	     45.00000000	    -39.41696771	   2257.72955998	  -2973.57623322	    137.27306172	    177.70184004	  -1071.79192700	     25.19366346	      8.83412396	    -22.18596950
      6.66000000	     35.48832357	     17.87575527	     25.86076249	   -153.36718187	    818.17439952	      6.31937938	     15.80866538	     38.14265771	     40.18571327	     45.00000000	    -45.00000000	  -3686.91528360	  -2446.59996428	     33.92870919	     27.59686270	   1814.06892337	     40.54488749	     19.81017401	      6.16187291	     10.53600250	    -45.00000000	    -39.86419545	     45.00000000	    -39.44102648	   2257.95797853	  -2973.26239541	    137.31383290	    177.55556437	  -1071.74748227	     24.72947374	      8.69630840	    -22.19323996
      6.67000000	     35.73288043	     17.49442529	     25.14524275	   -158.39494623	    820.05258682	      6.32325799	     15.80744559	     38.11666019	     40.20052292	     45.00000000	    -45.00000000	  -3687.18413578	  -2446.39454297	     33.92255044	     27.70965760	   1814.17119192	     41.72663742	     19.67707507	      5.86861569	     10.53102559	    -45.00000000	    -39.87556646	     45.00000000	    -39.42840024	   2258.28641985	  -2973.01370972	    137.30444076	    177.27004785	  -1071.69291682	     24.40526430	      8.58998226	    -22.21198428
      6.68000000	     36.28118946	     16.56950014	     23.69989937	   -163.40880470	    821.87302292	      6.34120415	     15.86690517	     38.34129682	     40.40561310	     45.00000000	    -45.00000000	  -3687.83673277	  -2446.21066513	     34.60397619	     29.88910363	   1814.41195795	     42.75669922	     19.38442608	      5.41830642	     10.46478435	    -45.00000000	    -39.81336467	     45.00000000	    -37.68033975	   2258.32491392	  -2973.01080260	    137.67729427	    176.91985599	  -1071.77488278	     24.37091222	      8.89965560	    -22.26433202
      6.69000000	     36.17086762	     16.80153429	     23.85889296	   -168.39844417	    823.63653446	      6.37066606	     15.80303971	     38.10807828	     40.21653458	     45.00000000	    -45.00000000	  -3687.69281597	  -2446.08866151	     33.85352756	     28.08264129	   1814.36216013	     44.15775240	     19.34909874	      5.32247591	     10.47727542	    -45.00000000	    -39.83432945	     45.00000000	    -39.48285190	   2258.87347154	  -2972.59717677	    137.40667187	    176.78346232	  -1071.60882010	     24.16329938	      8.28308054	    -22.24309953
      6.70000000	     36.64033512	     15.93729496	     22.63414198	   -173.34595680	    825.33752485	      6.40812158	     15.73889322	     38.23212602	     40.46432670	     45.00000000	    -45.00000000	  -3688.23291442	  -2446.01533372	     34.45622954	     30.07002578	   1814.36316969	     45.45496873	     19.06105574	      4.99792092	     10.50097460	    -45.00000000	    -39.69306766	     45.00000000	    -38.29553958	   2259.03317571	  -2972.57895570	    137.63441903	    176.60453861	  -1071.74036469	     24.21660587	      8.58652175	    -22.29265485
      6.71000000	     36.60496302	     16.09625745	     22.63469633	   -178.24605428	    826.97797996	      6.45401891	     15.73501296	     38.08924475	     40.09433872	     45.00000000	    -45.00000000	  -3688.09966699	  -2445.72148876	     33.80071428	     28.26710095	   1814.57027335	     47.29753087	     19.08215920	      4.94115647	     10.51624467	    -45.00000000	    -39.65048762	     45.00000000	    -40.13117636	   2259.36427085	  -2972.16005768	    137.41624082	    176.54828409	  -1071.57983626	     24.00063941	      7.93965786	    -22.21301573
